<svg preserveAspectRatio="none" overflow="visible" style="display: block;" width="17.5" height="17.3736" viewBox="0 0 17.5 17.3736" fill="none" xmlns="http://www.w3.org/2000/svg">
<g id="Union">
<path d="M14.375 1.25C16.1009 1.25 17.5 2.64911 17.5 4.375V11.875C17.5 13.6009 16.1009 15 14.375 15H12.4512C11.8819 15.0001 11.3433 15.2587 10.9875 15.7031L10.2136 16.6699C9.46301 17.6082 8.03699 17.6082 7.28638 16.6699L6.51245 15.7031C6.15671 15.2587 5.61811 15.0001 5.04883 15H3.125C1.39911 15 0 13.6009 0 11.875V4.375C0 2.64911 1.39911 1.25 3.125 1.25C3.47018 1.25 3.75 1.52982 3.75 1.875C3.75 2.22018 3.47018 2.5 3.125 2.5C2.08947 2.5 1.25 3.33947 1.25 4.375V11.875C1.25 12.9105 2.08947 13.75 3.125 13.75H5.04883C5.99801 13.7501 6.89606 14.1819 7.48901 14.9231L8.26172 15.8899C8.51191 16.2024 8.98809 16.2024 9.23828 15.8899L10.011 14.9231C10.6039 14.1819 11.502 13.7501 12.4512 13.75H14.375C15.4105 13.75 16.25 12.9105 16.25 11.875V4.375C16.25 3.33947 15.4105 2.5 14.375 2.5C14.0298 2.5 13.75 2.22018 13.75 1.875C13.75 1.52982 14.0298 1.25 14.375 1.25Z" fill="#2F3B3A"/>
<path d="M8.75 10.625C9.09518 10.625 9.375 10.9048 9.375 11.25V11.875C9.375 12.2202 9.09518 12.5 8.75 12.5C8.40482 12.5 8.125 12.2202 8.125 11.875V11.25C8.125 10.9048 8.40482 10.625 8.75 10.625Z" fill="#2F3B3A"/>
<path d="M8.89404 0C10.8854 0.000269572 12.4997 1.61456 12.5 3.60596C12.5 5.08065 11.6024 6.40788 10.2332 6.95557L10.0232 7.03857C9.63165 7.19542 9.37503 7.57501 9.375 7.99683V8.125C9.375 8.47018 9.09518 8.75 8.75 8.75C8.40482 8.75 8.125 8.47018 8.125 8.125V7.99683C8.12503 7.06372 8.69297 6.22426 9.55933 5.87769L9.76929 5.79468C10.6637 5.43672 11.25 4.56938 11.25 3.60596C11.2497 2.30492 10.1951 1.25027 8.89404 1.25H8.75C7.36929 1.25 6.25 2.36929 6.25 3.75V4.375C6.25 4.72018 5.97018 5 5.625 5C5.27982 5 5 4.72018 5 4.375V3.75C5 1.67893 6.67893 0 8.75 0H8.89404Z" fill="#2F3B3A"/>
</g>
</svg>
