<svg preserveAspectRatio="none" overflow="visible" style="display: block;" width="15" height="15" viewBox="0 0 15 15" fill="none" xmlns="http://www.w3.org/2000/svg">
<path id="Union" fill-rule="evenodd" clip-rule="evenodd" d="M6.875 0C10.672 0 13.75 3.07804 13.75 6.875C13.75 8.5484 13.1508 10.081 12.157 11.2732L14.8169 13.9331C15.061 14.1772 15.061 14.5728 14.8169 14.8169C14.5728 15.061 14.1772 15.061 13.9331 14.8169L11.2732 12.157C10.081 13.1508 8.5484 13.75 6.875 13.75C3.07804 13.75 0 10.672 0 6.875C0 3.07804 3.07804 0 6.875 0ZM6.875 1.25C3.7684 1.25 1.25 3.7684 1.25 6.875C1.25 9.9816 3.7684 12.5 6.875 12.5C9.9816 12.5 12.5 9.9816 12.5 6.875C12.5 3.7684 9.9816 1.25 6.875 1.25Z" fill="#2F3B3A"/>
</svg>
